<?xml version="1.0" encoding="utf-8"?>
<!-- Generator: Adobe Illustrator 23.0.0, SVG Export Plug-In . SVG Version: 6.00 Build 0)  -->
<svg version="1.1" id="Capa_1" xmlns="http://www.w3.org/2000/svg" xmlns:xlink="http://www.w3.org/1999/xlink" x="0px" y="0px"
	 viewBox="0 0 80 80" style="enable-background:new 0 0 80 80;" xml:space="preserve">
<style type="text/css">
	.st0{fill:#FF7A5C;}
</style>
<path class="st0" d="M77.4,37.4C77.4,16.8,60.6,0,40,0S2.6,16.8,2.6,37.4c0,15.1,9.4,29,23.3,34.7l-0.1,2.8c0,2.8,2.3,5.2,5.2,5.2
	s5.2-2.3,5.2-5.2v-0.2c1.3,0.1,2.6,0.2,3.9,0.2c2.2,0,4.3-0.2,6.5-0.6v0.6c0,2.8,2.3,5.2,5.2,5.2s5.2-2.3,5.2-5.2l-0.2-3.8
	C69.3,64.7,77.4,51.6,77.4,37.4z M46.5,37.4h10.3c0,2.8-2.3,5.2-5.2,5.2S46.5,40.3,46.5,37.4z M59.4,37.4v-18h-2.6v15.5h-3.9V19.4
	h-2.6v15.5h-3.9V19.4h-2.6v18.1c0,2.9,1.6,5.3,3.9,6.7l-0.8,19.5c-3.6,1-7.5,1.1-11.2,0.6l-0.8-20c3.8-1.9,6.4-6.6,6.4-11.9
	c0-7.1-4.6-12.9-10.3-12.9s-10.3,5.8-10.3,12.9c0,5.4,2.7,10,6.4,11.9l-0.7,16.6C18,56,12.9,47.2,12.9,37.4
	c0-14.9,12.2-27.1,27.1-27.1s27.1,12.2,27.1,27.1c0,8.6-4.1,16.7-11,21.8l-0.6-15.1C57.8,42.8,59.4,40.3,59.4,37.4z M23.2,32.3
	c0-5.7,3.5-10.3,7.7-10.3s7.7,4.6,7.7,10.3S35.2,42.6,31,42.6S23.2,37.9,23.2,32.3z M31,77.4c-1.4,0-2.6-1.2-2.6-2.5L29.6,45
	c0.4,0.1,0.9,0.1,1.3,0.1c0.5,0,0.9,0,1.3-0.1l1.2,29.8C33.5,76.3,32.4,77.4,31,77.4z M36,72l-0.2-5.2c1.4,0.2,2.8,0.3,4.2,0.3
	c2.3,0,4.6-0.3,6.8-0.8l-0.2,5.3C43.1,72.3,39.5,72.4,36,72z M51.6,77.4c-1.4,0-2.6-1.2-2.6-2.5L50.3,45c0.4,0.1,0.9,0.1,1.3,0.1
	s0.9,0,1.3-0.1l1.2,29.8C54.2,76.3,53,77.4,51.6,77.4z M56.5,68.1l-0.2-5.8c8.4-5.5,13.4-14.8,13.4-24.8C69.7,21.1,56.4,7.7,40,7.7
	S10.3,21.1,10.3,37.4c0,11.1,6.1,21.2,15.9,26.3L26,69.3C13.5,63.8,5.2,51.2,5.2,37.4C5.2,18.2,20.8,2.6,40,2.6s34.8,15.6,34.8,34.8
	C74.8,50.2,67.7,62.1,56.5,68.1z"/>
</svg>
