<?xml version="1.0" encoding="utf-8"?>
<!-- Generator: Adobe Illustrator 23.0.0, SVG Export Plug-In . SVG Version: 6.00 Build 0)  -->
<svg version="1.1" id="Layer_1" xmlns="http://www.w3.org/2000/svg" xmlns:xlink="http://www.w3.org/1999/xlink" x="0px" y="0px"
	 viewBox="0 0 80 80" style="enable-background:new 0 0 80 80;" xml:space="preserve">
<style type="text/css">
	.st0{fill:#FF7A5C;}
</style>
<path class="st0" d="M76.9,54.8c-1.5-2-3.6-3.5-5.9-4.4c0-0.4-0.1-0.9-0.3-1.3c-0.8-1.6-2.5-1.7-4.3-1.7c-1.1-3.3-2.9-8.8-4.7-14.3
	c-0.2-0.6-0.9-0.9-1.5-0.7c-0.6,0.2-0.9,0.9-0.7,1.5c1.7,5.1,3.4,10.4,4.5,13.7c-2.3,0.3-4.5,1.2-6.5,2.5c0.3-1.6,0.2-3.2-0.2-4.6
	c-4.7-19.7-4.5-18.6-4.6-20c0.3,0,0.2,0,3.9,0c0.4,1.3,0.9,2.7,1.3,4.1c0.2,0.6,0.9,0.9,1.5,0.7c0.6-0.2,0.9-0.9,0.7-1.5
	c-0.4-1.1-0.7-2.2-1.1-3.3h1.5c0.9,0,1.7-0.6,2-1.3h2.2c1.1,0,2-0.9,2-2V18c0-1.1-0.9-2-2-2h-2.2c-0.3-0.8-1.1-1.3-2-1.3h-5.4
	l-2.9-6.6c-0.2-0.4-0.6-0.7-1.1-0.7h-3l0.6-2.1C49,4.7,48.6,4,48,3.8c-0.6-0.2-1.3,0.2-1.4,0.8l-2,6.9c-0.2,0.6,0.2,1.3,0.8,1.4
	c0.6,0.2,1.3-0.2,1.4-0.8l0.7-2.5h2.9l2.2,5c-1,0.1-2,0.5-2.8,1.2h-4.6c-0.8,0-1.7,0.4-2.2,1l-3,3.1c-0.4,0.5-0.4,1.2,0,1.6
	c0.5,0.4,1.2,0.4,1.6,0l3-3.1c0.1-0.2,0.4-0.2,0.6-0.2h3c-0.8,2.3,0,5,2.2,6.3c0,2.3,0,1.7,4.7,21.4c0.7,2.9,0,5.9-1.9,8.2
	c-0.3,0.4-0.8,0.6-1.3,0.6c-5.9,0-6.5,0.1-7.9-0.5c-0.6-0.2-1.3,0.1-1.5,0.6s0.1,1.3,0.6,1.5c2,0.8,3.1,0.6,8.8,0.6
	c-0.6,1.4-0.9,2.9-1,4.5H34.4c0.6-0.8,0.9-1.8,0.9-2.8c0-3.8-1.8-7.3-5-9.7c-3.8-2.9-8.8-3.9-13.5-3.3c-0.6,0.1-1.1,0.7-1,1.3
	c0.1,0.6,0.7,1.1,1.3,1C24.8,47,33,50.9,33,58.6c0,1.5-1.4,2.8-3.3,2.8c-26.5,0-24.9,0-25,0c-1.4-0.1-2.2-1.5-2-2.3
	c1.4-4.5,3.4-5.4,4.9-7c1.5-1.4,3.3-2.4,5.3-3.2c0.6-0.2,0.9-0.9,0.7-1.5c-0.2-0.6-0.9-0.9-1.5-0.7c-2.2,0.9-4.3,2.1-6,3.7
	c0,0-0.1,0.1-0.1,0.1c-0.1,0.1-0.3,0.3-0.5,0.5c1.6-3.5,3.4-6.4,5.6-8.8h24.8c2,8.5,1.9,9.1,3.1,10.8c0.4,0.5,1.1,0.7,1.6,0.3
	c0.5-0.4,0.7-1.1,0.3-1.6c-0.8-1.3-0.7-1.3-2.9-10.8V38c0-2.1-1.7-3.9-3.9-3.9H16.2c-3.4,0-6.3,2.3-7.1,5.6C9,40.1,9,40.5,9.1,40.9
	c-6,6.8-8.8,17-8.8,18.7c0,2.3,2,4.1,4.5,4.1h2.4c0.5,7,6.3,12.5,13.3,12.5c7.1,0,12.9-5.5,13.3-12.5c20.2,0,18.2,0,18.9,0
	c0.5,6.7,6,12.5,13.4,12.5C77.3,76.2,83.5,63.5,76.9,54.8L76.9,54.8z M62.7,18.3h1.7v3.3h-1.7V18.3z M52,22.7
	c-2-0.8-2.4-3.4-0.9-4.9c1-1,2.1-0.9,3.3-0.9h6v6C52.6,23,52.7,23.1,52,22.7L52,22.7z M16.2,36.5h17.9c0.9,0,1.6,0.7,1.6,1.6v1.9
	H11.4C12.1,37.9,14,36.5,16.2,36.5z M25.4,63.7c-0.4,2.3-2.4,4-4.8,4c-2.4,0-4.4-1.7-4.8-4H25.4z M20.6,73.9
	c-5.8,0-10.5-4.5-11-10.1h3.9c0.4,3.6,3.5,6.3,7.2,6.3c3.7,0,6.7-2.8,7.2-6.3c3.2,0,0.7,0,3.9,0C31.2,69.4,26.4,73.9,20.6,73.9
	L20.6,73.9z M68.1,49.8c0.5,0.1,0.8,0.6,0.5,1.1l-4,8c-0.8,1.6-2.4,2.6-4.2,2.6c-6.3,0-6.7,0-7.2,0C53.8,53.9,60.7,48.8,68.1,49.8z
	 M67.5,58.1c2.1,0.6,3.6,2.5,3.6,4.7c0,2.7-2.2,4.9-4.9,4.9c-2.4,0-4.4-1.8-4.8-4.1c2.2-0.4,4.2-1.7,5.2-3.8L67.5,58.1z M66.2,73.9
	c-6,0-10.5-4.7-11-10.1h3.9c0.4,3.6,3.5,6.3,7.2,6.3c4,0,7.2-3.2,7.2-7.2c0-3.2-2-5.9-4.9-6.8l1.7-3.4c4.1,1.7,7,5.7,7,10.3
	C77.3,68.9,72.3,73.9,66.2,73.9L66.2,73.9z"/>
</svg>
