<?xml version="1.0" encoding="utf-8"?>
<!-- Generator: Adobe Illustrator 23.0.0, SVG Export Plug-In . SVG Version: 6.00 Build 0)  -->
<svg version="1.1" id="Capa_1" xmlns="http://www.w3.org/2000/svg" xmlns:xlink="http://www.w3.org/1999/xlink" x="0px" y="0px"
	 viewBox="0 0 60 60" style="enable-background:new 0 0 60 60;" xml:space="preserve">
<style type="text/css">
	.st0{fill:#FF7A5C;}
</style>
<g>
	<path class="st0" d="M36.2,50c-1.9,0-3.5,1.6-3.5,3.5s1.6,3.5,3.5,3.5s3.5-1.6,3.5-3.5S38.1,50,36.2,50z M36.2,55
		c-0.8,0-1.5-0.7-1.5-1.5s0.7-1.5,1.5-1.5s1.5,0.7,1.5,1.5S37,55,36.2,55z"/>
	<path class="st0" d="M40.7,37c2.2,0,4-1.8,4-4s-1.8-4-4-4s-4,1.8-4,4S38.5,37,40.7,37z M40.7,31c1.1,0,2,0.9,2,2s-0.9,2-2,2
		s-2-0.9-2-2S39.6,31,40.7,31z"/>
	<path class="st0" d="M16.7,12c0.3,0,0.5-0.1,0.7-0.3l2-2c0.4-0.4,0.4-1,0-1.4s-1-0.4-1.4,0l-2,2c-0.4,0.4-0.4,1,0,1.4
		C16.2,11.9,16.4,12,16.7,12z"/>
	<path class="st0" d="M52.7,29.7c0-0.9-0.3-1.7-1-2.3l-0.6-0.6c0.9-0.8,1.5-2.1,1.5-3.4c0-2.5-2-4.5-4.5-4.5c-0.2,0-0.4,0-0.5,0
		c0-0.2,0-0.4,0-0.5c0-2.5-2-4.5-4.5-4.5c-0.2,0-0.4,0-0.5,0c0-0.2,0-0.4,0-0.5c0-2.5-2-4.5-4.5-4.5c-0.2,0-0.4,0-0.5,0
		c0-0.2,0-0.4,0-0.5c0-2.5-2-4.5-4.5-4.5c-1.3,0-2.5,0.6-3.4,1.5L29,4.7L25.3,1c-1.3-1.3-3.4-1.3-4.7,0L8.3,13.3
		c-1.3,1.3-1.3,3.4,0,4.7l3.8,3.8l4.9,4.9c-1.4,0.8-2.3,2.2-2.3,3.9c0,1.6,0.8,2.9,2,3.7c0.1,0.1,0.1,0.2,0.2,0.2l10.8,10.7V47h-2
		v13h18h8V47h-2v-3c1.9-1.6,3-4,3-6.5c0-1.7-0.5-3.4-1.5-4.9l0.6-0.6C52.3,31.5,52.7,30.6,52.7,29.7z M50.7,23.5
		c0,0.8-0.4,1.5-0.9,1.9l-3.5-3.5c0.5-0.6,1.2-0.9,1.9-0.9C49.6,21,50.7,22.1,50.7,23.5z M45.7,18.5c0,0.8-0.4,1.5-0.9,1.9l-3.5-3.5
		c0.5-0.6,1.2-0.9,1.9-0.9C44.6,16,45.7,17.1,45.7,18.5z M40.7,13.5c0,0.8-0.4,1.5-0.9,1.9l-3.5-3.5c0.5-0.6,1.2-0.9,1.9-0.9
		C39.6,11,40.7,12.1,40.7,13.5z M33.2,6c1.4,0,2.5,1.1,2.5,2.5c0,0.8-0.4,1.5-0.9,1.9l-3.5-3.5C31.7,6.4,32.4,6,33.2,6z M9.7,16.5
		c-0.5-0.5-0.5-1.3,0-1.8L22,2.4c0.1-0.1,0.3-0.2,0.4-0.3c0.1,0,0.1,0,0.2,0c0.2,0,0.4,0,0.5,0c0.1,0,0.2,0,0.2,0
		c0.2,0.1,0.3,0.2,0.4,0.3l2.3,2.3L12,18.9L9.7,16.5z M27.6,6.1l1.2,1.2l5,5l0.6,0.6l4.4,4.4l0.6,0.6l4.4,4.4l0.6,0.6l5,5l0.9,0.9
		c0.5,0.5,0.5,1.3,0,1.8l-0.4,0.4l0,0L38,43c-0.5,0.5-1.3,0.5-1.8,0l-8-8h1c2.5,0,4.5-2,4.5-4.5s-2-4.5-4.5-4.5h-10l-5.7-5.7
		L27.6,6.1z M18.6,28.1l0.4,0c0,0,0.1,0,0.1,0h10c1.4,0,2.5,1.1,2.5,2.5S30.6,33,29.2,33h-3h-2.8h-4.2c-1.4,0-2.5-1.1-2.5-2.5
		C16.7,29.3,17.5,28.3,18.6,28.1z M27.7,58v-9h8.4c3.1,0,5.6,2.5,5.6,5.6V58H27.7z M49.7,58h-6v-3.4c0-2.2-1-4.2-2.5-5.6h8.5V58z
		 M49.7,34.1c0.6,1,1,2.2,1,3.4c0,2.1-0.9,3.9-2.6,5.2L47.7,43v4H36.1h-6.4v-2.7L29.3,44c0,0-0.1-0.1-0.2-0.1L20.3,35h5.1l9.4,9.4
		c0.6,0.6,1.5,1,2.3,1c0.8,0,1.7-0.3,2.3-1L49.7,34.1z"/>
</g>
</svg>
