<?xml version="1.0" encoding="utf-8"?>
<!-- Generator: Adobe Illustrator 23.0.0, SVG Export Plug-In . SVG Version: 6.00 Build 0)  -->
<svg version="1.1" id="Layer_1" xmlns="http://www.w3.org/2000/svg" xmlns:xlink="http://www.w3.org/1999/xlink" x="0px" y="0px"
	 viewBox="0 0 60 60" style="enable-background:new 0 0 60 60;" xml:space="preserve">
<style type="text/css">
	.st0{fill:#FF7A5C;}
	.st1{fill:#FFFFFF;}
	.st2{display:none;}
	.st3{display:inline;fill:#FFFFFF;}
</style>
<g>
	<circle class="st0" cx="30" cy="30" r="30"/>
	<path class="st0" d="M42.2,17.8c-1.7-0.4-4.3-1.9-6-2.5c-6.5-2-15.2-0.4-17.6,7.1c-0.2,0.2-0.6,0.2-0.8,0.2
		c-4.8,5.7-1.6,12.5-2,18.8c-0.1,2.2-1.3,4.2-2.8,5.8l12.6,12.6c1.4,0.2,2.9,0.3,4.4,0.3c14.8,0,27.1-10.7,29.6-24.9L42.2,17.8z"/>
	<g>
		<path class="st1" d="M29.2,12.7c-9.1,0.4-16.4,8.1-16.3,17.2c0,2.8,0.7,5.4,1.9,7.7L13,46.4c-0.1,0.5,0.3,0.9,0.8,0.8l8.7-2.1
			c2.2,1.1,4.7,1.8,7.4,1.8C39.2,47,47,39.6,47.3,30.3C47.5,20.4,39.2,12.2,29.2,12.7L29.2,12.7z M39.5,39.4
			c-2.5,2.5-5.9,3.9-9.5,3.9c-2.1,0-4.1-0.5-6-1.4l-1.2-0.6l-5.3,1.3l1.1-5.4L18,36c-1-1.9-1.5-4-1.5-6.1c0-3.6,1.4-7,3.9-9.5
			s5.9-3.9,9.5-3.9s7,1.4,9.5,3.9s3.9,5.9,3.9,9.5C43.4,33.4,42,36.9,39.5,39.4L39.5,39.4z"/>
		<path class="st1" d="M38.3,33.6l-3.3-1c-0.4-0.1-0.9,0-1.2,0.3L33,33.8c-0.3,0.3-0.9,0.5-1.3,0.3c-1.6-0.6-4.9-3.6-5.7-5.1
			c-0.2-0.4-0.2-1,0.1-1.3l0.7-0.9c0.3-0.4,0.3-0.8,0.2-1.3l-1.4-3.2c-0.3-0.8-1.3-1-1.9-0.4c-0.9,0.8-2,2-2.2,3.3
			c-0.2,2.3,0.8,5.3,4.5,8.8c4.4,4.1,7.9,4.6,10.1,4.1c1.3-0.3,2.3-1.6,3-2.6C39.5,34.7,39.1,33.8,38.3,33.6L38.3,33.6z"/>
	</g>
	<g class="st2">
		<path class="st3" d="M41.7,17.3L39.1,20c0.1,0.1,0.3,0.2,0.4,0.4c2.5,2.5,3.9,5.9,3.9,9.5s-1.4,7-3.9,9.5s-5.9,3.9-9.5,3.9
			c-2.1,0-4.1-0.5-6-1.4l-1.2-0.6l-5.3,1.3l0.1-0.5l-4.7,4.8c0.1,0.3,0.4,0.5,0.8,0.4l8.7-2.1c2.2,1.1,4.7,1.8,7.4,1.8
			c9.3,0.1,17.1-7.3,17.4-16.6C47.3,25.2,45.2,20.6,41.7,17.3z"/>
		<path class="st3" d="M38.3,33.6l-3.3-1c-0.4-0.1-0.9,0-1.2,0.3L33,33.8c-0.3,0.3-0.9,0.5-1.3,0.3c-0.9-0.4-2.4-1.5-3.7-2.7
			l-2.3,2.4c0.1,0.1,0.2,0.2,0.2,0.2c4.4,4.1,7.9,4.6,10.1,4.1c1.3-0.3,2.3-1.6,3-2.6C39.5,34.7,39.1,33.8,38.3,33.6z"/>
	</g>
</g>
</svg>
